<!-- Generated by IcoMoon.io -->
<svg version="1.1" xmlns="http://www.w3.org/2000/svg" width="32" height="32" viewBox="0 0 32 32">
<title>opensea</title>
<path d="M16.14 0.001c-8.947-0.074-16.213 7.192-16.139 16.139 0.075 8.688 7.173 15.787 15.859 15.859 8.947 0.077 16.216-7.192 16.139-16.139-0.072-8.685-7.171-15.784-15.859-15.859zM11.356 7.964c1.024 1.301 1.637 2.947 1.637 4.733 0 1.547-0.459 2.987-1.248 4.189h-5.547l5.158-8.922zM28.268 17.711v1.152c0 0.075-0.040 0.139-0.109 0.168-0.376 0.16-1.616 0.736-2.133 1.453-1.331 1.853-2.347 4.765-4.619 4.765h-9.48c-3.357 0-6.165-2.664-6.163-6.213 0-0.088 0.075-0.16 0.163-0.16h4.493c0.155 0 0.277 0.125 0.277 0.277v0.867c0 0.461 0.373 0.835 0.835 0.835h3.408v-1.984h-2.328c1.339-1.696 2.136-3.837 2.136-6.168 0-2.6-0.997-4.971-2.629-6.744 0.987 0.115 1.931 0.312 2.821 0.573v-0.552c0-0.573 0.464-1.037 1.037-1.037s1.037 0.464 1.037 1.037v1.331c3.181 1.485 5.264 3.949 5.264 6.736 0 1.635-0.715 3.157-1.949 4.437-0.237 0.245-0.565 0.384-0.909 0.384h-2.405v1.981h3.019c0.651 0 1.819-1.235 2.373-1.979 0 0 0.024-0.037 0.088-0.056s5.544-1.277 5.544-1.277c0.115-0.032 0.229 0.056 0.229 0.173v0.002z"></path>
</svg>
